<svg width="268" height="111" viewBox="0 0 268 111" fill="none" xmlns="http://www.w3.org/2000/svg">
<path d="M228.572 27.3132C226.994 27.7644 225.663 27.9131 224.218 26.754C220.097 23.4373 215.103 21.3526 209.88 19.3937C200.048 15.6951 189.995 12.8528 179.827 10.2793C165.861 6.74227 151.884 4.98569 137.944 4.04056C129.696 3.4836 121.376 2.92986 113.321 3.12221C100.085 3.43049 86.9126 4.049 74.405 6.28531C63.1812 8.29813 52.6081 11.1602 43.422 15.7829C39.0867 17.9589 35.281 20.6326 32.4106 24.192C33.3418 23.9846 34.3934 23.8981 35.163 23.5333C38.029 22.1442 41.2164 21.2513 44.6605 20.6049C48.2876 19.9282 51.572 18.6519 55.2237 18.0674C65.2097 16.4738 75.0267 14.5143 85.5489 13.9784C88.0553 13.8529 90.3979 13.169 92.9083 13.263C98.1498 13.4684 103.043 12.6844 108.235 12.7658C113.046 12.8426 117.817 12.7014 122.622 12.6796C128.974 12.6585 135.341 12.8235 141.864 13.8604C143.658 14.141 145.507 14.3531 147.266 14.3442C153.42 14.3486 159.642 15.6355 165.815 16.2159C176.922 17.274 187.843 19.8295 198.719 22.42C208.883 24.8343 218.98 27.7626 228.62 32.0468C235.359 35.0406 242.015 38.0218 248.02 41.9612C255.097 46.6207 260.124 52.0882 263.827 58.3249C267.403 64.3421 268.026 70.1207 266.467 75.6364C264.548 82.4157 260.187 88.1145 253.724 92.7006C242.981 100.328 229.631 104.921 214.651 107.694C195.091 111.307 174.3 110.829 153.095 109.002C140.38 107.913 127.721 105.821 114.995 103.14C101.843 100.367 88.9154 96.7884 76.2394 92.4232C66.3525 89.0238 56.5428 85.3078 47.7173 80.0414C36.2789 73.2188 27.2668 65.0822 21.1446 55.418C18.4488 51.168 17.0579 45.6333 16.7969 38.7009C15.8425 39.2774 15.0224 39.5786 14.5236 40.0848C6.79265 47.8715 3.57177 57.1496 6.2192 67.9121C7.56288 73.372 10.8036 78.7673 15.7438 83.7113C19.8032 87.7616 23.7242 91.8676 29.2708 94.9545C32.4326 96.7108 35.6303 98.4052 38.8146 100.144C39.4579 100.494 40.0686 100.894 40.5789 101.69C39.9649 101.591 39.2858 101.595 38.747 101.361C32.8872 98.7997 27.2681 95.8975 22.0122 92.5942C16.6385 89.2193 12.4168 85.072 8.66469 80.7495C3.09041 74.3181 0.577872 67.648 0.404025 60.6566C0.214796 53.0177 2.83338 46.3987 7.79146 40.5628C9.77735 38.2196 12.2156 36.1083 14.7742 34.118C17.9208 31.6722 20.4082 28.872 22.9342 26.059C31.336 16.665 42.9291 10.1522 57.9149 6.54453C67.9353 4.13621 78.4541 2.73797 89.0328 1.43039C89.7705 1.34723 90.4895 1.20998 91.2391 1.20319C105.061 0.972539 118.794 0.570099 132.981 1.79513C141.913 2.56809 150.791 3.05786 159.767 4.43861C174.094 6.65165 188.341 9.42322 202.059 14.8396C209.185 17.6454 216.337 20.4226 223.469 23.2062C225.804 24.1214 227.397 25.4825 228.572 27.3132ZM87.427 93.1535C102.776 97.6492 116.604 100.66 130.525 102.776C145.044 104.986 159.575 106.981 173.852 106.68C179.418 106.557 185.138 106.906 190.588 106.53C197.403 106.065 203.979 104.946 210.76 104.361C216.647 103.861 221.638 102.051 226.84 100.582C231.017 99.4027 234.642 97.4515 238.535 95.8836C247.244 92.3924 253.755 87.2382 258.125 80.693C262.631 73.9822 263.309 66.4685 258.997 58.194C255.65 51.7597 249.66 46.6604 242.431 42.1616C234.868 37.4419 226.66 33.7186 217.938 30.7275C210.292 28.0937 202.548 25.6128 194.692 23.9116C186.07 22.0422 177.364 20.5722 168.686 19.3535C158.455 17.9258 148.178 16.533 138.033 15.9199C127.632 15.291 117.326 15.3939 107.087 15.5652C94.7997 15.7807 82.7689 16.5942 71.0974 18.5341C63.6876 19.7683 56.3948 21.1345 49.2591 22.7901C40.9095 24.7265 33.4926 27.7905 26.5886 31.4079C25.4127 32.0275 24.4151 33.04 24.0128 34.0968C23.1822 36.2389 22.4914 38.4955 22.3254 40.7996C21.8361 47.7992 25.0464 54.5199 30.3972 61.1757C36.9961 69.4172 46.0372 75.767 56.5955 81.0531C66.9754 86.2374 78.0211 90.0069 87.427 93.1535Z" fill="#B6DEED"/>
</svg>
