<svg width="109" height="69" viewBox="0 0 109 69" fill="none" xmlns="http://www.w3.org/2000/svg">
<path d="M21.0468 66.2257C21.6174 65.7588 22.1268 65.4815 22.839 65.8451C24.8719 66.8875 27.1016 67.1773 29.4067 67.3689C33.7479 67.7351 38.0733 67.6368 42.4117 67.3857C48.3711 67.042 54.1197 65.8008 59.756 64.1567C63.091 63.1826 66.4535 62.1963 69.6214 60.8746C74.8277 58.7068 79.9714 56.3926 84.6565 53.3653C88.8601 50.6457 92.7035 47.5976 95.785 43.8744C97.24 42.1202 98.4252 40.196 99.1331 37.9683C98.7892 38.2142 98.383 38.4177 98.1221 38.7183C97.1543 39.8531 95.9993 40.7871 94.7128 41.6361C93.3576 42.5282 92.2104 43.67 90.8342 44.5193C87.0705 46.8398 83.4178 49.3187 79.314 51.1883C78.3363 51.6326 77.4907 52.333 76.4849 52.6674C74.3836 53.3611 72.5396 54.4997 70.4731 55.2482C68.5582 55.941 66.685 56.7376 64.7841 57.4793C62.2701 58.4558 59.7282 59.3408 57.0189 59.811C56.2743 59.9426 55.5162 60.117 54.8205 60.3889C52.3823 61.3224 49.7619 61.621 47.2465 62.2676C42.7188 63.424 38.0842 63.7987 33.4632 64.1488C29.1458 64.4793 24.7927 64.541 20.457 63.8509C17.4261 63.369 14.4298 62.8809 11.5758 61.8116C8.21034 60.5428 5.55931 58.5558 3.34037 55.9802C1.19772 53.496 0.254101 50.6827 0.206502 47.6698C0.149 43.9664 1.18921 40.4355 3.19636 37.1449C6.53246 31.6727 11.2671 27.3312 16.8671 23.6582C24.1801 18.8654 32.474 15.9447 41.0948 13.6398C46.2632 12.2544 51.5304 11.382 56.8954 10.7964C62.4397 10.1917 67.9928 10.027 73.5409 10.2962C77.8676 10.5035 82.202 10.8819 86.3334 12.1902C91.6876 13.8842 96.2391 16.6086 99.83 20.541C101.411 22.2699 102.629 24.8437 103.569 28.2926C103.877 27.8574 104.166 27.5811 104.302 27.2505C106.426 22.1564 106.583 16.9975 104.236 11.9839C103.045 9.44059 101.11 7.21826 98.5571 5.48144C96.4605 4.06044 94.4119 2.59035 91.8424 1.88035C90.378 1.47724 88.9069 1.11083 87.4356 0.719975C87.1386 0.641816 86.8484 0.533067 86.5503 0.210447C86.8054 0.166557 87.074 0.061491 87.3156 0.0971098C89.946 0.495148 92.522 1.10122 95.0025 1.96439C97.5384 2.84566 99.711 4.29077 101.719 5.89551C104.703 8.2844 106.503 11.259 107.415 14.7509C108.411 18.5663 108.172 22.2955 106.912 25.9862C106.407 27.4674 105.696 28.9007 104.923 30.2914C103.971 32.0006 103.323 33.788 102.662 35.5877C100.467 41.5928 96.6594 46.6331 91.1579 50.7273C87.4787 53.463 83.4803 55.7661 79.4473 58.0328C79.1651 58.1868 78.8968 58.3652 78.6006 58.4826C73.153 60.7003 67.7609 62.9912 61.993 64.532C58.3614 65.5012 54.7855 66.6046 51.0628 67.2747C45.1204 68.3395 39.1421 69.1112 33.0543 68.4715C29.893 68.143 26.725 67.8328 23.5638 67.5166C22.5284 67.4111 21.7331 66.9684 21.0468 66.2257ZM69.0209 11.6298C62.398 11.7014 56.5569 12.2891 50.7869 13.3409C44.7687 14.4366 38.7716 15.6423 33.152 17.9647C30.962 18.8726 28.6538 19.5672 26.5402 20.5848C23.8964 21.8553 21.4264 23.4183 18.8105 24.7437C16.5387 25.8904 14.7798 27.5604 12.8961 29.0903C11.3836 30.3192 10.1829 31.8524 8.82978 33.2334C5.80064 36.3146 3.84306 39.8984 2.90129 43.8567C1.92548 47.919 2.5633 51.8033 5.26924 55.3118C7.37156 58.0406 10.3592 59.6961 13.7656 60.8608C17.3309 62.086 21.0316 62.7116 24.8476 62.8906C28.1944 63.0533 31.5615 63.1242 34.8785 62.7859C38.5197 62.4155 42.1461 61.8314 45.7306 61.1252C49.9562 60.2879 54.1954 59.426 58.2882 58.192C62.4843 56.927 66.5546 55.308 70.5904 53.6648C75.4319 51.688 80.0999 49.4492 84.4896 46.6982C87.2761 44.9504 90.0004 43.154 92.6275 41.2357C95.7017 38.9916 98.2704 36.3219 100.569 33.4517C100.96 32.961 101.233 32.2998 101.265 31.7068C101.336 30.5025 101.337 29.2619 101.125 28.0771C100.475 24.4802 98.3926 21.5863 95.4701 19.0504C91.862 15.9064 87.5145 14.0857 82.6942 13.0311C77.9569 12.0005 73.1265 11.7831 69.0209 11.6298Z" fill="#B6DEED"/>
</svg>
