<svg width="141" height="142" viewBox="0 0 141 142" fill="none" xmlns="http://www.w3.org/2000/svg">
<path d="M98.6316 34.6285C98.4262 35.1083 98.2934 35.7209 97.9433 36.183C93.2991 42.3682 89.628 49.2153 84.5077 55.1004C75.7092 65.1868 67.1594 75.4953 58.4957 85.7132C57.8158 86.513 57.198 87.3735 56.2608 88.5611C58.3579 88.3414 60.0935 88.1603 62.1907 87.9406C62.1045 90.5367 60.909 91.7401 58.9376 92.6393C56.058 93.9504 53.2303 95.3947 50.4442 96.9002C49.4742 97.4373 48.4636 98.2027 47.8149 99.1155C46.0236 101.654 43.3162 101.67 40.7338 102.055C40.4548 102.092 40.1337 101.778 39.4818 101.45C39.8301 100.306 40.1163 99.1012 40.5783 97.9649C42.396 93.6374 44.2964 89.3495 46.1038 85.0325C47.4594 81.8206 48.5217 81.0231 51.8602 81.3149C51.7216 83.633 51.5832 85.9925 51.4153 88.9625C53.9703 85.9941 56.175 83.4673 58.3487 80.9101C64.88 73.2072 71.2766 65.3934 77.9529 57.8116C82.9497 52.115 87.1599 45.9182 91.1112 39.5097C91.9755 38.1066 92.8398 36.6828 93.9009 35.4512C94.9209 34.2825 96.179 33.2846 98.6316 34.6285Z" fill="white"/>
</svg>
