<svg width="155" height="129" viewBox="0 0 155 129" fill="none" xmlns="http://www.w3.org/2000/svg">
<path d="M36.2263 39.9822C36.608 40.3814 36.9665 40.9471 37.4855 41.2659C44.3901 45.5511 50.5723 50.9295 57.8392 54.704C70.3163 61.1631 82.6286 67.9554 95.0205 74.6064C95.9922 75.1263 96.9246 75.7347 98.2956 76.5378C96.1297 77.2198 94.3375 77.7849 92.1716 78.4669C93.2176 81.0699 94.8512 81.7776 97.1435 81.841C100.491 81.9311 103.836 82.1791 107.162 82.5073C108.325 82.6348 109.613 82.9768 110.595 83.6251C113.315 85.4337 116.012 84.2806 118.722 83.5571C119.012 83.4742 119.216 83.0165 119.743 82.4021C118.973 81.3888 118.243 80.2869 117.363 79.3308C113.955 75.7145 110.48 72.1742 107.087 68.5642C104.551 65.8831 103.2 65.5307 99.9892 67.2687C100.985 69.5664 101.995 71.9062 103.261 74.8541C99.6228 72.9384 96.4964 71.3205 93.3897 69.6583C84.0479 64.6444 74.7989 59.4596 65.3577 54.6313C58.2833 50.9953 51.8059 46.5109 45.5075 41.6995C44.1293 40.6457 42.7434 39.5708 41.233 38.7765C39.7868 38.0283 38.1671 37.5565 36.2263 39.9822Z" fill="white"/>
</svg>
