<svg width="292" height="8" viewBox="0 0 292 8" fill="none" xmlns="http://www.w3.org/2000/svg">
<path d="M17.8149 1.98412C31.9191 1.58974 45.9947 1.15273 60.0988 0.8223C68.939 0.609122 77.8077 0.555828 86.6479 0.395945C90.7389 0.321332 94.83 0.129472 98.9211 0.0761778C101.811 0.0442012 104.729 0.161449 107.618 0.214743C109.192 0.24672 110.765 0.331991 112.339 0.310673C119.319 0.214743 126.271 0.0228834 133.252 0.00156559C138.916 -0.0197522 144.609 0.182767 150.274 0.236061C157.798 0.310673 165.322 0.321332 172.818 0.395945C180.971 0.481216 189.125 0.651758 197.278 0.737029C204.974 0.8223 212.67 0.737029 220.366 0.928889C227.804 1.11009 235.185 1.5471 242.595 1.86687C251.149 2.22927 259.732 2.53838 268.286 2.96474C273.664 3.23121 279.014 3.62559 284.335 4.05194C287.568 4.30776 290.057 5.06454 291.545 6.18372C292.746 7.08973 291.487 7.86783 288.741 7.94244C287.625 7.97442 286.481 7.8998 285.365 7.80387C265.253 6.13043 244.884 5.29903 224.371 4.894C210.038 4.60621 195.705 4.13722 181.372 3.9347C169.728 3.77481 158.056 3.91338 146.412 3.87074C138.23 3.83877 130.048 3.60427 121.865 3.67888C107.303 3.80679 92.7416 4.0626 78.2083 4.32908C68.8532 4.49962 59.5553 4.85136 50.2002 5.03256C37.2404 5.27772 24.2233 5.41628 11.2349 5.59748C7.42992 5.65078 3.93964 5.38431 1.42206 4.21183C-1.20996 2.9754 -0.122818 1.87753 4.1399 1.77094C8.6601 1.65369 13.2375 1.73896 17.7863 1.73896C17.7863 1.82424 17.8149 1.89885 17.8149 1.98412Z" fill="white"/>
</svg>
