<svg width="263" height="128" viewBox="0 0 263 128" fill="none" xmlns="http://www.w3.org/2000/svg">
<path d="M194.137 24.2769C191.519 23.0905 188.89 21.9515 186.318 20.7259C174.083 14.9536 160.917 12.2229 147.733 9.65423C139.929 8.14686 132.019 7.19615 124.129 6.06771C122.695 5.8611 121.208 6.05733 119.75 6.04425C118.006 6.03333 116.205 6.27502 114.511 5.96007C103.531 3.88736 92.6009 4.46322 81.6765 4.67547C68.8641 4.92729 56.6269 7.51475 45.0779 11.6836C36.9976 14.6093 29.7565 18.9514 22.9653 23.909C18.169 27.4244 14.0018 31.181 10.9249 35.9128C9.30209 38.4007 8.10249 41.1165 7.3303 44.2105C8.01533 43.95 8.7439 43.749 9.35281 43.405C17.1137 39.0306 25.5867 35.8781 34.358 33.3401C41.445 31.2856 48.721 29.5722 56.0743 28.2744C64.7915 26.736 73.6657 25.6809 82.5038 24.6176C89.2343 23.8099 95.9973 23.0262 102.824 22.8041C113.015 22.4766 123.261 22.4933 133.501 22.7076C140.928 22.8529 148.386 23.3699 155.829 24.0331C167.852 25.0965 179.83 26.6972 191.383 30.6075C197.666 32.718 204.052 34.5367 210.249 36.8601C213.785 38.1866 217.16 40.0575 220.341 42.034C227.47 46.4581 234.846 50.6229 240.799 56.3914C242.531 58.0584 244.094 59.8864 245.513 61.7649C249.761 67.4318 253.797 73.2002 258.067 78.8555C263.89 86.5521 263.608 96.5741 256.095 103.476C250.852 108.301 244.455 111.506 237.529 114.194C225.863 118.718 213.459 121.118 200.832 122.905C192.128 124.131 183.396 125.317 174.63 126.314C159.18 128.079 143.517 128.005 127.888 127.954C115.883 127.907 103.871 126.962 91.9589 124.563C87.6196 123.686 83.2344 123.098 78.9057 122.173C58.4803 117.875 39.8249 109.845 23.4403 97.7981C12.1853 89.526 3.76492 79.3704 0.768152 66.4542C-0.368931 61.5538 0.328799 56.8506 1.26495 52.1845C2.94245 43.8866 6.45273 36.2168 11.8654 29.4561C16.0884 24.1861 21.3473 19.796 27.3013 15.9439C38.2835 8.81101 50.8845 5.02819 64.3301 3.14395C72.8968 1.93669 81.6979 1.62814 90.4152 1.10168C99.6341 0.538825 108.796 1.15745 118.031 2.88721C126.72 4.51078 135.575 5.14329 144.271 6.73529C158.357 9.34128 172.373 12.429 185.519 18.29C188.658 19.6931 191.599 21.4665 194.638 23.0626C194.466 23.4884 194.301 23.8826 194.137 24.2769ZM170.805 38.799C170.819 38.7358 170.833 38.6726 170.848 38.6095C169.438 38.2094 168.053 37.6987 166.612 37.4407C159.791 36.2043 152.988 34.889 146.132 33.8935C140.323 33.0508 134.461 32.3619 128.622 32.0763C120.565 31.6899 112.522 31.8372 104.463 31.6326C89.3589 31.2693 74.3885 31.8317 59.7693 34.6296C57.2293 35.1196 54.5688 35.2176 52.0943 35.8385C45.4356 37.5083 38.7878 39.2137 32.2528 41.1768C28.8555 42.1871 25.5678 43.5539 22.4974 45.1355C11.2826 50.8559 7.01795 61.5408 13.8344 73.4254C18.0457 80.776 24.3084 86.3488 31.9035 90.9775C47.4448 100.446 64.4083 106.885 82.281 111.139C93.6131 113.838 105.113 115.879 116.573 118.093C120.048 118.759 123.588 119.224 127.095 119.499C138.984 120.399 150.846 120.912 162.694 120.559C175.308 120.18 187.694 118.87 199.527 115.379C204.262 113.989 208.772 112.002 213.354 110.279C225.029 105.89 235.308 100.025 241.879 90.0586C245.074 85.2209 246.941 80.2167 246.02 74.3532C245.607 71.7221 244.53 69.5888 242.209 67.8391C234.712 62.1874 226.61 57.3619 217.949 53.3393C207.02 48.2589 195.525 44.5941 183.763 41.6983C179.473 40.6833 175.123 39.7707 170.805 38.799ZM235.592 58.1889C235.733 57.9882 235.887 57.8073 236.027 57.6066C234.607 56.242 233.399 54.6099 231.734 53.5718C224.613 49.1161 217.67 44.286 210.093 40.5904C196.761 34.1234 182.314 30.6733 167.59 28.2886C155.758 26.3726 143.886 25.907 132.027 25.4612C118.548 24.9658 105.084 24.8222 91.815 26.5969C88.5853 27.0312 85.3265 27.4258 81.6925 27.8853C82.4125 28.3127 82.6554 28.583 82.8829 28.5845C84.2008 28.6322 85.5224 28.6642 86.84 28.629C100.237 28.2267 113.571 27.5117 127.118 28.6361C141.373 29.8202 155.453 31.8609 169.362 35.0903C179.552 37.4663 189.685 40.095 199.69 43.1261C207.562 45.5113 215.263 48.4884 222.86 51.5913C227.307 53.4216 231.364 55.9766 235.592 58.1889ZM16.6898 85.1984C17.1045 86.0547 17.1709 86.4346 17.4064 86.6535C21.8069 90.4637 25.8766 94.6473 30.7158 97.9424C36.0472 101.581 42.0292 104.436 47.7812 107.555C56.5575 112.334 66.1105 115.263 75.8421 117.652C80.4097 118.779 85.0701 119.579 89.7121 120.292C95.9472 121.264 102.214 122.094 108.488 122.809C111.912 123.198 115.364 123.212 118.798 123.387C118.199 122.506 117.574 122.249 116.92 122.119C108.079 120.411 99.199 118.96 90.4185 116.984C82.2342 115.143 74.0741 113.024 66.0823 110.496C58.6724 108.165 51.4447 105.278 44.2421 102.363C39.0932 100.276 34.1955 97.7468 29.811 94.3715C25.8065 91.2476 21.4386 88.4732 16.6898 85.1984ZM252.079 79.316C251.91 79.477 251.589 79.6371 251.568 79.8148C250.87 87.3876 247.452 93.8011 241.833 99.2047C236.504 104.326 230.386 108.572 223.266 111.697C221.478 112.473 219.774 113.383 218.026 114.234C218.193 114.503 218.342 114.769 218.513 115.023C221.07 114.288 223.685 113.716 226.13 112.806C230.705 111.115 235.114 109.072 239.747 107.46C246.443 105.119 251.19 100.979 254.593 95.5572C257.63 90.7501 256.427 83.6951 252.079 79.316ZM11.2337 46.3496C9.55026 46.0703 6.33685 47.0225 5.93771 48.4588C5.20044 51.2289 4.10569 53.9849 4.74567 57.2142C7.05317 53.3709 9.18832 49.7874 11.2337 46.3496Z" fill="#B6DEED"/>
</svg>
