<svg width="293" height="271" viewBox="0 0 293 271" fill="none" xmlns="http://www.w3.org/2000/svg">
<path d="M78.609 72.8033C79.1714 73.6931 79.6315 74.8703 80.4763 75.6791C91.6999 86.518 101.198 98.9824 113.273 109.073C134.015 126.36 154.332 144.168 174.847 161.759C176.456 163.136 177.961 164.652 180.207 166.719C175.962 166.947 172.449 167.136 168.204 167.363C169.205 172.503 171.97 174.52 176.182 175.685C182.334 177.381 188.425 179.36 194.453 181.473C196.556 182.235 198.813 183.438 200.396 185.049C204.774 189.535 210.169 188.707 215.433 188.655C216 188.64 216.539 187.914 217.732 187.056C216.672 184.889 215.717 182.581 214.434 180.466C209.431 172.429 204.277 164.497 199.298 156.477C195.572 150.514 193.203 149.263 186.65 150.902C187.667 155.472 188.697 160.124 189.981 165.982C183.946 160.884 178.748 156.554 173.603 152.153C158.138 138.891 142.905 125.367 127.189 112.392C115.42 102.637 105.057 91.638 95.1413 80.1352C92.9718 77.6164 90.7959 75.0565 88.2896 72.9415C85.8854 70.9387 83.0617 69.3512 78.609 72.8033Z" fill="#CACAC3"/>
</svg>
